# xmcd
#
# Track frame offsets: 
#        150
#        17851
#        33101
#        44295
#        60906
#        83822
#        96805
#        114041
#        131000
#        140234
#        151332
#        164432
#        180676
#        200802
#        214923
#        234114
#        264184
#        282977
#        299098
#
# Disc length: 4265 seconds
#
# Revision: 0
# Processed by: cddbd v1.5.2PL0 Copyright (c) Steve Scherf et al.
# Submitted via: ExactAudioCopy v0.99pb3
#
DISCID=0e10a713
DTITLE=Various Artist - No One Got Hurt - Bloodshot Records 15th Anniversary
DYEAR=2011
DGENRE=Alt. Rock
TTITLE0=Sanctified Grumblers - EZ Ridin' Grumblers
TTITLE1=Sally Timms and Jon Langford - Sad Milkman
TTITLE2=Sally Timms and Jon Langford - Pill Sailor
TTITLE3=The Blacks - Theresa Leaves Lonesome Town
TTITLE4=The Blacks - Horrorshow
TTITLE5=Bobby Bare Jr - Monk At The Disco
TTITLE6=Bobby Bare Jr - Valentine
TTITLE7=Moonshine Willy - Turn The Lights Down Low
TTITLE8=The Scotland Yard Gospel Choir - Aspidistra
TTITLE9=The Scotland Yard Gospel Choir - Tear Down The Opera House
TTITLE10=Scott H. Biram - Still Drunk, Still Crazy, Still Blue
TTITLE11=Scott H. Biram - Truck Driver
TTITLE12=Deadstring Brothers - If You Want Me To
TTITLE13=Deadstring Brothers - Smile
TTITLE14=Alejandro Escovedo - Castanets
TTITLE15=Alejandro Escovedo - I Was Drunk
TTITLE16=Waco Brothers - Red Brick Wall
TTITLE17=Rico Bell with the Waco Brothers - Merseysong
TTITLE18=Waco Brothers - See Willy Fly By
EXTD=
EXTT0=
EXTT1=
EXTT2=
EXTT3=
EXTT4=
EXTT5=
EXTT6=
EXTT7=
EXTT8=
EXTT9=
EXTT10=
EXTT11=
EXTT12=
EXTT13=
EXTT14=
EXTT15=
EXTT16=
EXTT17=
EXTT18=
PLAYORDER=
